<?xml version="1.0" standalone="no"?>
<!DOCTYPE svg PUBLIC "-//W3C//DTD SVG 20010904//EN"
 "http://www.w3.org/TR/2001/REC-SVG-20010904/DTD/svg10.dtd">
<svg version="1.0" xmlns="http://www.w3.org/2000/svg"
 width="225.000000pt" height="225.000000pt" viewBox="0 0 225.000000 225.000000"
 preserveAspectRatio="xMidYMid meet">
<g transform="translate(0.000000,225.000000) scale(0.100000,-0.100000)"
fill="#ffffff" stroke="none">
<path d="M1004 2234 c-19 -9 -43 -37 -64 -74 -19 -33 -38 -60 -43 -60 -4 0
-28 13 -52 30 -24 16 -56 35 -71 40 -41 16 -90 -4 -121 -51 -23 -36 -30 -39
-70 -39 -54 0 -95 -20 -111 -55 -7 -14 -12 -62 -12 -105 l0 -79 -183 -263
c-101 -145 -204 -294 -230 -332 -76 -111 -66 -138 87 -243 61 -42 112 -77 114
-78 1 -1 -27 -54 -63 -119 -68 -121 -80 -171 -52 -210 8 -10 83 -57 168 -105
l154 -86 6 -85 c3 -47 9 -93 13 -103 18 -39 57 -47 234 -47 l170 0 139 -79
c77 -43 152 -81 167 -85 45 -11 89 17 126 84 19 33 38 60 43 60 4 0 28 -13 52
-30 24 -16 56 -35 71 -40 41 -16 90 4 121 51 23 35 30 39 69 39 95 0 124 37
124 159 l0 79 220 316 c240 345 240 346 240 375 0 51 -31 79 -248 226 -1 1 27
54 63 119 68 121 80 171 52 210 -8 10 -83 57 -168 105 l-154 86 -6 85 c-3 47
-9 93 -13 103 -18 39 -57 47 -234 47 l-170 0 -140 79 c-158 89 -184 97 -228
75z m154 -96 l95 -53 -71 -3 c-39 -2 -105 -2 -146 0 l-76 3 30 53 c22 37 37
52 52 52 11 0 63 -24 116 -52z m562 -128 c20 -20 20 -33 20 -883 0 -730 -2
-866 -14 -883 -14 -18 -33 -19 -595 -22 -571 -2 -581 -2 -601 18 -20 20 -20
30 -20 885 0 852 0 865 20 885 20 20 33 20 595 20 562 0 575 0 595 -20z m208
-301 c149 -83 152 -86 152 -109 0 -14 -106 -216 -124 -237 -2 -2 -39 23 -84
54 l-82 56 0 154 c0 84 2 153 5 153 3 0 62 -32 133 -71z m-1472 -856 c-2 -3
-92 57 -200 132 -163 113 -196 141 -196 161 0 15 74 130 198 308 l197 285 3
-441 c1 -243 0 -443 -2 -445z m1539 411 c163 -113 195 -140 195 -160 0 -15
-73 -129 -196 -307 -108 -155 -198 -284 -200 -286 -2 -2 -4 197 -4 442 0 246
2 447 5 447 3 0 93 -61 200 -136z m-1607 -438 l72 -50 0 -153 c0 -84 -2 -153
-5 -153 -7 0 -257 140 -272 152 -7 6 -13 18 -13 28 0 27 123 239 135 233 5 -4
43 -29 83 -57z m874 -708 c-19 -34 -37 -54 -51 -56 -11 -2 -56 16 -99 39 -133
73 -135 69 32 69 l148 0 -30 -52z"/>
<path d="M638 1944 c-35 -18 -48 -43 -48 -89 0 -32 9 -47 72 -111 39 -41 77
-74 83 -74 6 0 44 33 83 74 63 64 72 79 72 111 0 44 -13 70 -43 87 -32 18
-186 19 -219 2z m82 -48 c21 -12 29 -12 52 0 33 17 63 6 73 -26 8 -25 -4 -46
-54 -95 l-41 -39 -55 54 c-30 30 -55 60 -55 67 0 14 35 53 48 53 4 -1 18 -7
32 -14z"/>
<path d="M985 1405 c-5 -2 -22 -6 -37 -9 -65 -14 -127 -103 -128 -180 0 -66
33 -115 169 -250 109 -108 132 -126 148 -118 38 21 263 260 278 295 37 90 -2
199 -90 244 -39 21 -124 20 -166 -1 -29 -14 -37 -15 -63 -2 -33 15 -95 27
-111 21z m99 -80 c20 -14 39 -25 41 -25 2 0 21 12 42 26 75 51 179 13 203 -74
18 -65 4 -89 -124 -220 l-120 -123 -118 118 c-129 129 -149 164 -128 227 11
33 52 79 80 89 37 13 89 6 124 -18z"/>
<path d="M1404 570 c-33 -13 -54 -50 -54 -93 0 -35 8 -47 72 -113 39 -41 77
-74 83 -74 6 0 44 33 83 74 65 67 72 78 72 114 0 29 -7 49 -24 68 -22 26 -28
28 -117 30 -52 1 -104 -2 -115 -6z m76 -54 c21 -12 29 -12 52 0 33 17 63 6 73
-27 6 -17 -4 -33 -49 -78 l-57 -56 -50 54 c-54 60 -60 82 -27 105 27 19 26 19
58 2z"/>
</g>
</svg>
