<?xml version="1.0" standalone="no"?>
<!DOCTYPE svg PUBLIC "-//W3C//DTD SVG 20010904//EN"
 "http://www.w3.org/TR/2001/REC-SVG-20010904/DTD/svg10.dtd">
<svg version="1.0" xmlns="http://www.w3.org/2000/svg"
 width="189.000000pt" height="267.000000pt" viewBox="0 0 189.000000 267.000000"
 preserveAspectRatio="xMidYMid meet">
<g transform="translate(0.000000,267.000000) scale(0.100000,-0.100000)"
fill="#FFFFFF" stroke="none">
<path d="M1050 2098 c-85 -21 -156 -41 -158 -42 -6 -7 70 -346 94 -421 48
-146 125 -275 214 -360 52 -50 100 -144 151 -296 47 -139 68 -265 52 -302 -7
-14 -40 -39 -82 -61 -72 -38 -76 -42 -65 -70 20 -52 426 47 451 110 14 38 -9
49 -108 49 l-94 0 -33 63 c-39 73 -87 254 -104 389 -9 75 -9 107 3 166 18 94
16 272 -4 367 -23 106 -139 450 -152 449 -5 0 -80 -19 -165 -41z m194 -280
c43 -161 80 -301 83 -310 2 -10 0 -18 -6 -18 -11 0 -12 2 -106 345 -36 132
-68 248 -71 258 -3 10 0 17 8 17 9 0 38 -93 92 -292z"/>
<path d="M525 2058 c-29 -84 -96 -342 -105 -407 -15 -103 -8 -219 20 -326 18
-66 20 -96 15 -169 -11 -162 -54 -337 -96 -390 -19 -24 -27 -26 -95 -26 -68 0
-75 -2 -83 -22 -7 -19 -3 -27 23 -44 100 -66 339 -109 381 -68 24 25 15 36
-55 71 -35 17 -70 40 -78 50 -29 38 2 224 69 407 21 59 46 104 85 152 104 130
153 259 199 529 14 83 28 157 31 166 4 14 -21 23 -141 53 -163 41 -164 41
-170 24z"/>
</g>
</svg>
